<mxfile host="65bd71144e">
    <diagram id="nzd1M5S517UlHXQLDNoR" name="ページ1">
        <mxGraphModel dx="818" dy="1928" grid="1" gridSize="10" guides="1" tooltips="1" connect="1" arrows="1" fold="1" page="1" pageScale="1" pageWidth="827" pageHeight="1169" math="1" shadow="0">
            <root>
                <mxCell id="0"/>
                <mxCell id="1" parent="0"/>
                <mxCell id="8" value="T" style="text;html=1;align=center;verticalAlign=middle;resizable=0;points=[];autosize=1;strokeColor=none;fillColor=none;fontSize=22;fontFamily=Lucida Console;" parent="1" vertex="1">
                    <mxGeometry x="319.94" y="40" width="40" height="40" as="geometry"/>
                </mxCell>
                <mxCell id="9" value="F" style="text;html=1;align=center;verticalAlign=middle;resizable=0;points=[];autosize=1;strokeColor=none;fillColor=none;fontSize=22;fontFamily=Lucida Console;" parent="1" vertex="1">
                    <mxGeometry x="279.94000000000005" y="80" width="40" height="40" as="geometry"/>
                </mxCell>
                <mxCell id="21" style="edgeStyle=orthogonalEdgeStyle;html=1;exitX=0.5;exitY=1;exitDx=0;exitDy=0;exitPerimeter=0;entryX=0.5;entryY=0;entryDx=0;entryDy=0;endArrow=open;endFill=0;rounded=0;curved=0;" parent="1" source="11" target="12" edge="1">
                    <mxGeometry relative="1" as="geometry"/>
                </mxCell>
                <mxCell id="11" value="開始" style="strokeWidth=1;html=1;shape=mxgraph.flowchart.terminator;whiteSpace=wrap;fontFamily=Lucida Console;fontSize=18;" parent="1" vertex="1">
                    <mxGeometry x="249.94" y="-250" width="60" height="30" as="geometry"/>
                </mxCell>
                <mxCell id="33" style="edgeStyle=orthogonalEdgeStyle;shape=connector;curved=0;rounded=0;html=1;exitX=0.5;exitY=1;exitDx=0;exitDy=0;entryX=0.5;entryY=0;entryDx=0;entryDy=0;strokeColor=default;align=center;verticalAlign=middle;fontFamily=Helvetica;fontSize=11;fontColor=default;labelBackgroundColor=default;endArrow=open;endFill=0;" parent="1" source="12" target="32" edge="1">
                    <mxGeometry relative="1" as="geometry"/>
                </mxCell>
                <mxCell id="12" value="&lt;div&gt;&lt;span style=&quot;font-family: &amp;quot;Lucida Console&amp;quot;; background-color: transparent;&quot;&gt;整数型の変数&amp;nbsp;&lt;/span&gt;&lt;span style=&quot;background-color: transparent; font-family: &amp;quot;Lucida Console&amp;quot;;&quot;&gt;\(i\)&lt;/span&gt;&lt;/div&gt;&lt;div&gt;&lt;span style=&quot;background-color: transparent; font-family: &amp;quot;Lucida Console&amp;quot;;&quot;&gt;文字型の変数 \(c\)&lt;/span&gt;&lt;/div&gt;" style="shape=hexagon;perimeter=hexagonPerimeter2;whiteSpace=wrap;html=1;fixedSize=1;align=center;size=20;fontSize=16;" parent="1" vertex="1">
                    <mxGeometry x="199.94" y="-210" width="160" height="50" as="geometry"/>
                </mxCell>
                <mxCell id="32" value="\(i \leftarrow 0\)" style="rounded=0;whiteSpace=wrap;html=1;fontSize=16;fontFamily=Lucida Console;" parent="1" vertex="1">
                    <mxGeometry x="240" y="-150" width="80" height="30" as="geometry"/>
                </mxCell>
                <mxCell id="46" style="edgeStyle=orthogonalEdgeStyle;shape=connector;curved=0;rounded=0;html=1;exitX=0.5;exitY=1;exitDx=0;exitDy=0;exitPerimeter=0;entryX=0.5;entryY=0;entryDx=0;entryDy=0;strokeColor=default;align=center;verticalAlign=middle;fontFamily=Helvetica;fontSize=11;fontColor=default;labelBackgroundColor=default;endArrow=open;endFill=0;" parent="1" source="34" target="39" edge="1">
                    <mxGeometry relative="1" as="geometry"/>
                </mxCell>
                <mxCell id="55" style="edgeStyle=orthogonalEdgeStyle;shape=connector;curved=0;rounded=0;html=1;exitX=1;exitY=0.5;exitDx=0;exitDy=0;exitPerimeter=0;strokeColor=default;align=center;verticalAlign=middle;fontFamily=Helvetica;fontSize=11;fontColor=default;labelBackgroundColor=default;endArrow=open;endFill=0;entryX=0.5;entryY=0;entryDx=0;entryDy=0;" parent="1" source="34" target="42" edge="1">
                    <mxGeometry relative="1" as="geometry">
                        <mxPoint x="410" y="110" as="targetPoint"/>
                    </mxGeometry>
                </mxCell>
                <mxCell id="34" value="&lt;span&gt;\(i &amp;lt; 5\)&lt;/span&gt;" style="strokeWidth=1;html=1;shape=mxgraph.flowchart.decision;whiteSpace=wrap;fontSize=16;fontFamily=Lucida Console;" parent="1" vertex="1">
                    <mxGeometry x="229.94" y="-90" width="100" height="40" as="geometry"/>
                </mxCell>
                <mxCell id="36" style="edgeStyle=orthogonalEdgeStyle;shape=connector;curved=0;rounded=0;html=1;exitX=0.5;exitY=1;exitDx=0;exitDy=0;entryX=0.5;entryY=0;entryDx=0;entryDy=0;entryPerimeter=0;strokeColor=default;align=center;verticalAlign=middle;fontFamily=Helvetica;fontSize=11;fontColor=default;labelBackgroundColor=default;endArrow=open;endFill=0;" parent="1" source="32" target="34" edge="1">
                    <mxGeometry relative="1" as="geometry"/>
                </mxCell>
                <mxCell id="47" style="edgeStyle=orthogonalEdgeStyle;shape=connector;curved=0;rounded=0;html=1;exitX=0.5;exitY=1;exitDx=0;exitDy=0;entryX=0.5;entryY=0;entryDx=0;entryDy=0;strokeColor=default;align=center;verticalAlign=middle;fontFamily=Helvetica;fontSize=11;fontColor=default;labelBackgroundColor=default;endArrow=open;endFill=0;" parent="1" source="39" target="40" edge="1">
                    <mxGeometry relative="1" as="geometry"/>
                </mxCell>
                <mxCell id="39" value="\(c\) へ&lt;span style=&quot;background-color: transparent;&quot;&gt;値&lt;/span&gt;&lt;span style=&quot;background-color: transparent;&quot;&gt;を入力&lt;/span&gt;" style="shape=parallelogram;perimeter=parallelogramPerimeter;whiteSpace=wrap;html=1;fixedSize=1;size=10;fontSize=16;" parent="1" vertex="1">
                    <mxGeometry x="220" y="-30" width="120" height="30" as="geometry"/>
                </mxCell>
                <mxCell id="40" value="\(c\) の&lt;span style=&quot;background-color: transparent;&quot;&gt;値&lt;/span&gt;&lt;span style=&quot;background-color: transparent;&quot;&gt;を出力&lt;/span&gt;" style="shape=parallelogram;perimeter=parallelogramPerimeter;whiteSpace=wrap;html=1;fixedSize=1;size=10;fontSize=16;" parent="1" vertex="1">
                    <mxGeometry x="219.94" y="10" width="120" height="30" as="geometry"/>
                </mxCell>
                <mxCell id="50" style="edgeStyle=orthogonalEdgeStyle;shape=connector;curved=0;rounded=0;html=1;exitX=0.5;exitY=1;exitDx=0;exitDy=0;exitPerimeter=0;entryX=0.5;entryY=0;entryDx=0;entryDy=0;strokeColor=default;align=center;verticalAlign=middle;fontFamily=Helvetica;fontSize=11;fontColor=default;labelBackgroundColor=default;endArrow=open;endFill=0;" parent="1" source="41" target="44" edge="1">
                    <mxGeometry relative="1" as="geometry"/>
                </mxCell>
                <mxCell id="56" style="edgeStyle=orthogonalEdgeStyle;shape=connector;curved=0;rounded=0;html=1;exitX=1;exitY=0.5;exitDx=0;exitDy=0;exitPerimeter=0;strokeColor=default;align=center;verticalAlign=middle;fontFamily=Helvetica;fontSize=11;fontColor=default;labelBackgroundColor=default;endArrow=open;endFill=0;" parent="1" source="41" edge="1">
                    <mxGeometry relative="1" as="geometry">
                        <mxPoint x="280" y="150" as="targetPoint"/>
                        <Array as="points">
                            <mxPoint x="380" y="70"/>
                            <mxPoint x="380" y="150"/>
                        </Array>
                    </mxGeometry>
                </mxCell>
                <mxCell id="41" value="&lt;span&gt;\(c = \mathrm{&#39;q&#39;}\)&lt;/span&gt;" style="strokeWidth=1;html=1;shape=mxgraph.flowchart.decision;whiteSpace=wrap;fontSize=16;fontFamily=Lucida Console;" parent="1" vertex="1">
                    <mxGeometry x="229.94" y="50" width="100" height="40" as="geometry"/>
                </mxCell>
                <mxCell id="42" value="Exit と出力" style="shape=parallelogram;perimeter=parallelogramPerimeter;whiteSpace=wrap;html=1;fixedSize=1;size=10;fontSize=16;" parent="1" vertex="1">
                    <mxGeometry x="410" y="130" width="120" height="30" as="geometry"/>
                </mxCell>
                <mxCell id="43" value="開始" style="strokeWidth=1;html=1;shape=mxgraph.flowchart.terminator;whiteSpace=wrap;fontFamily=Lucida Console;fontSize=18;" parent="1" vertex="1">
                    <mxGeometry x="440" y="180" width="60" height="30" as="geometry"/>
                </mxCell>
                <mxCell id="52" style="edgeStyle=orthogonalEdgeStyle;shape=connector;curved=0;rounded=0;html=1;exitX=0.5;exitY=1;exitDx=0;exitDy=0;entryX=0.5;entryY=0;entryDx=0;entryDy=0;strokeColor=default;align=center;verticalAlign=middle;fontFamily=Helvetica;fontSize=11;fontColor=default;labelBackgroundColor=default;endArrow=open;endFill=0;" parent="1" source="44" target="45" edge="1">
                    <mxGeometry relative="1" as="geometry"/>
                </mxCell>
                <mxCell id="44" value="\(c\) の&lt;span style=&quot;background-color: transparent;&quot;&gt;値&lt;/span&gt;&lt;span style=&quot;background-color: transparent;&quot;&gt;を出力&lt;/span&gt;" style="shape=parallelogram;perimeter=parallelogramPerimeter;whiteSpace=wrap;html=1;fixedSize=1;size=10;fontSize=16;" parent="1" vertex="1">
                    <mxGeometry x="219.94" y="110" width="120" height="30" as="geometry"/>
                </mxCell>
                <mxCell id="53" style="edgeStyle=orthogonalEdgeStyle;shape=connector;curved=0;rounded=0;html=1;exitX=0.5;exitY=1;exitDx=0;exitDy=0;strokeColor=default;align=center;verticalAlign=middle;fontFamily=Helvetica;fontSize=11;fontColor=default;labelBackgroundColor=default;endArrow=open;endFill=0;" parent="1" source="45" edge="1">
                    <mxGeometry relative="1" as="geometry">
                        <mxPoint x="280" y="-110" as="targetPoint"/>
                        <Array as="points">
                            <mxPoint x="280" y="210"/>
                            <mxPoint x="170" y="210"/>
                            <mxPoint x="170" y="-110"/>
                        </Array>
                    </mxGeometry>
                </mxCell>
                <mxCell id="45" value="\(i \leftarrow i + 1\)" style="rounded=0;whiteSpace=wrap;html=1;fontSize=16;fontFamily=Lucida Console;" parent="1" vertex="1">
                    <mxGeometry x="239.94" y="170" width="80" height="30" as="geometry"/>
                </mxCell>
                <mxCell id="48" style="edgeStyle=orthogonalEdgeStyle;shape=connector;curved=0;rounded=0;html=1;exitX=0.5;exitY=1;exitDx=0;exitDy=0;entryX=0.5;entryY=0;entryDx=0;entryDy=0;entryPerimeter=0;strokeColor=default;align=center;verticalAlign=middle;fontFamily=Helvetica;fontSize=11;fontColor=default;labelBackgroundColor=default;endArrow=open;endFill=0;" parent="1" source="40" target="41" edge="1">
                    <mxGeometry relative="1" as="geometry"/>
                </mxCell>
                <mxCell id="54" style="edgeStyle=orthogonalEdgeStyle;shape=connector;curved=0;rounded=0;html=1;exitX=0.5;exitY=1;exitDx=0;exitDy=0;entryX=0.5;entryY=0;entryDx=0;entryDy=0;entryPerimeter=0;strokeColor=default;align=center;verticalAlign=middle;fontFamily=Helvetica;fontSize=11;fontColor=default;labelBackgroundColor=default;endArrow=open;endFill=0;" parent="1" source="42" target="43" edge="1">
                    <mxGeometry relative="1" as="geometry"/>
                </mxCell>
                <mxCell id="58" style="shape=connector;rounded=0;html=1;exitX=0.5;exitY=1;exitDx=0;exitDy=0;exitPerimeter=0;strokeColor=default;align=center;verticalAlign=middle;fontFamily=Helvetica;fontSize=11;fontColor=default;labelBackgroundColor=default;endArrow=none;endFill=0;dashed=1;" parent="1" source="57" edge="1">
                    <mxGeometry relative="1" as="geometry">
                        <mxPoint x="380" y="70" as="targetPoint"/>
                    </mxGeometry>
                </mxCell>
                <mxCell id="57" value="continue" style="shape=note;whiteSpace=wrap;html=1;backgroundOutline=1;darkOpacity=0.05;fontFamily=Lucida Console;fontSize=16;fontColor=default;labelBackgroundColor=default;size=9;" parent="1" vertex="1">
                    <mxGeometry x="350" y="20" width="95.94" height="30" as="geometry"/>
                </mxCell>
            </root>
        </mxGraphModel>
    </diagram>
</mxfile>